# xmcd
#
# Track frame offsets: 
#        150
#        19916
#        37450
#        55940
#        66815
#        77381
#        90867
#        101846
#        116662
#        130185
#        147775
#        166870
#        178582
#        192338
#        208280
#        221718
#        236835
#        251304
#        265162
#        278714
#        294305
#        309880
#        321449
#        334873
#
# Disc length: 4715 seconds
#
# Revision: 0
# Processed by: cddbd v1.5.2PL0 Copyright (c) Steve Scherf et al.
# Submitted via: ExactAudioCopy v0.95b3
#
DISCID=64126918
DTITLE=Various Artist - Johnny Cash and Famous Friends
DYEAR=2008
DGENRE=Country
TTITLE0=Johnny Cash - To Beat The Devil  {Hello, I'm Johnny Cash - 1970
TTITLE0=}
TTITLE1=Johnny Cash - Who's Gene Autry  {I Would Like To See You Again
TTITLE1=1978}
TTITLE2=Johnny Cash - A Croft In Clachan (The Ballad Of Rob MacDunn)  
TTITLE2={Water From The Wells Of Home - 1988}
TTITLE3=Johnny Cash - Rollin' Free  {Little Fauss And Big Halsy - 1971}
TTITLE4=Johnny Cash - While I've Got It On My Mind  {Ragged Old Flag - 
TTITLE4=1974}
TTITLE5=Carl Perkins - Class Of '55  {Class Of '55 - 1986}
TTITLE6=Perkins, Lewis, Orbison, Cash - Waymore's Blues  {Class Of '55
TTITLE6=1986}
TTITLE7=Waylon Jennings - Dixie, Hold On  {White Mansions - 1978}
TTITLE8=Cash, Steve - Southern Boys  {White Mansions}
TTITLE9=Waylon Jennings and Jessi Colter - The Union Mare and The Confeder
TTITLE9=ate Grey  {White Mansions}
TTITLE10=Waylon Jennings - The Southland's Bleeding  {White Mansions}
TTITLE11=Waylon Jennings, Steve Cash, John Dillon - They Laid Waste To
TTITLE11=Our Land  {White Mansions}
TTITLE12=Johnny Cash and Waylon Jennings - The Ballad of 40 Dollars  {He
TTITLE12=roes - 1986}
TTITLE13=Nelson, Willie - The Pilgrim, Chapter 33  {Sings Kris Kristof
TTITLE13=ferson - 1979}
TTITLE14=The Highwaymen - Songs That Make A Difference  {Highwayman 2;
TTITLE14=1990}
TTITLE15=Johnny Cash - Cats In The Cradle  {Boom Chicka Boom - 1989}
TTITLE16=Johnny Cash - Tennessee Flat Top Box  {Classic Cash - 1988}
TTITLE17=Johnny Cash - Oney  {Any Old Wind That Blows - 1973}
TTITLE18=Johnny Cash - Chicken In Black (Brain Transplant)  {Single - 1
TTITLE18=984}
TTITLE19=Waylon Jennings - Tonight the Bottle Let Me Down  {I've Alway
TTITLE19=s Been Crazy, 1978}
TTITLE20=Marty Stuart and Johnny Cash - One More Ride  {Busy Bee Café - 1
TTITLE20=982}
TTITLE21=Marty Stuart -  Blue Railroad Train  {Busy Bee Café}
TTITLE22=Marty Stuart and Johnny Cash - Hey Porter  {Busy Bee Café}
TTITLE23=Marty Stuart - Long Train Gone  {Busy Bee Café}
EXTD=
EXTT0=
EXTT1=
EXTT2=
EXTT3=
EXTT4=
EXTT5=
EXTT6=
EXTT7=
EXTT8=
EXTT9=
EXTT10=
EXTT11=
EXTT12=
EXTT13=
EXTT14=
EXTT15=
EXTT16=
EXTT17=
EXTT18=
EXTT19=
EXTT20=
EXTT21=
EXTT22=
EXTT23=
PLAYORDER=
